<mxfile host="app.diagrams.net">
  <diagram name="Opera and Show Management System" id="bJ1eD8mZt7T44u7dDjNI">
    <mxGraphModel dx="1210" dy="697" grid="1" gridSize="10" guides="1" tooltips="1" connect="1" arrows="1" fold="1" page="1" pageScale="1" pageWidth="827" pageHeight="1169">
      <root>
        <mxCell id="0"/>
        <mxCell id="1" parent="0"/>
        <mxCell id="2" value="Opera&#xa;+title : String&#xa;+author : String&#xa;+creationDate : Date&#xa;+duration : Integer&#xa;+description : String" style="shape=swimlane;whiteSpace=wrap;" vertex="1" parent="1">
          <mxGeometry x="80" y="80" width="200" height="160" as="geometry"/>
        </mxCell>
        <mxCell id="3" value="Act&#xa;+description : String" style="shape=swimlane;whiteSpace=wrap;" vertex="1" parent="1">
          <mxGeometry x="80" y="260" width="160" height="60" as="geometry"/>
        </mxCell>
        <mxCell id="4" style="endArrow=none;" edge="1" parent="1" source="3" target="2">
          <mxGeometry relative="1" as="geometry"/>
        </mxCell>
        <mxCell id="4label" value="description" style="edgeLabel;align=center;" vertex="1" connectable="0" parent="4">
          <mxGeometry x="0.5" y="-0.2" width="80" height="20" as="geometry" relative="1"/>
        </mxCell>
        <mxCell id="5" value="Scene" style="shape=swimlane;whiteSpace=wrap;" vertex="1" parent="1">
          <mxGeometry x="340" y="80" width="100" height="40" as="geometry"/>
        </mxCell>
        <mxCell id="6" style="endArrow=block;" edge="1" parent="1" source="2" target="5">
          <mxGeometry relative="1" as="geometry"/>
        </mxCell>
        <mxCell id="6label" value="contains&#xa;1..5" style="edgeLabel;align=center;" vertex="1" connectable="0" parent="6">
          <mxGeometry x="0.5" y="-0.2" width="80" height="20" as="geometry" relative="1"/>
        </mxCell>
        <mxCell id="7" value="Character&#xa;+name : String&#xa;+isMain : Boolean" style="shape=swimlane;whiteSpace=wrap;" vertex="1" parent="1">
          <mxGeometry x="500" y="60" width="160" height="80" as="geometry"/>
        </mxCell>
        <mxCell id="8" style="endArrow=block;" edge="1" parent="1" source="5" target="7">
          <mxGeometry relative="1" as="geometry"/>
        </mxCell>
        <mxCell id="8label" value="includes&#xa;0..1" style="edgeLabel;align=center;" vertex="1" connectable="0" parent="8">
          <mxGeometry x="0.5" y="-0.2" width="80" height="20" as="geometry" relative="1"/>
        </mxCell>
        <mxCell id="9" value="Decor&#xa;+title : String&#xa;+description : String&#xa;+lyrics : Text&#xa;+score : String" style="shape=swimlane;whiteSpace=wrap;" vertex="1" parent="1">
          <mxGeometry x="720" y="40" width="180" height="120" as="geometry"/>
        </mxCell>
        <mxCell id="10" value="Music&#xa;+title : String&#xa;+description : String&#xa;+lyrics : Text&#xa;+score : String" style="shape=swimlane;whiteSpace=wrap;" vertex="1" parent="1">
          <mxGeometry x="720" y="180" width="180" height="120" as="geometry"/>
        </mxCell>
        <mxCell id="11" style="endArrow=block;" edge="1" parent="1" source="7" target="9">
          <mxGeometry relative="1" as="geometry"/>
        </mxCell>
        <mxCell id="11label" value="features&#xa;1..3" style="edgeLabel;align=center;" vertex="1" connectable="0" parent="11">
          <mxGeometry x="0.5" y="-0.2" width="80" height="20" as="geometry" relative="1"/>
        </mxCell>
        <mxCell id="12" value="Show&#xa;+date : Date&#xa;+location : String" style="shape=swimlane;whiteSpace=wrap;" vertex="1" parent="1">
          <mxGeometry x="360" y="180" width="160" height="80" as="geometry"/>
        </mxCell>
        <mxCell id="13" style="endArrow=block;" edge="1" parent="1" source="7" target="12">
          <mxGeometry relative="1" as="geometry"/>
        </mxCell>
        <mxCell id="13label" value="includes" style="edgeLabel;align=center;" vertex="1" connectable="0" parent="13">
          <mxGeometry x="0.5" y="-0.2" width="80" height="20" as="geometry" relative="1"/>
        </mxCell>
        <mxCell id="14" value="Singer&#xa;+name : String&#xa;+range : String" style="shape=swimlane;whiteSpace=wrap;" vertex="1" parent="1">
          <mxGeometry x="580" y="280" width="140" height="60" as="geometry"/>
        </mxCell>
        <mxCell id="15" style="endArrow=block;" edge="1" parent="1" source="12" target="14">
          <mxGeometry relative="1" as="geometry"/>
        </mxCell>
        <mxCell id="15label" value="demonstrates&#xa;1" style="edgeLabel;align=center;" vertex="1" connectable="0" parent="15">
          <mxGeometry x="0.5" y="-0.2" width="80" height="20" as="geometry" relative="1"/>
        </mxCell>
      </root>
    </mxGraphModel>
  </diagram>
</mxfile>